<svg width="25" height="25" viewBox="0 0 25 25" fill="none" xmlns="http://www.w3.org/2000/svg">
<mask id="path-1-inside-1_1039_16" fill="white">
<path d="M10.8333 5.83331C10.8333 8.59474 8.59476 10.8333 5.83334 10.8333H1.90735e-06V-2.09808e-05H10.8333V5.83331Z"/>
</mask>
<path d="M13.3333 5.83331C13.3333 9.97545 9.97547 13.3333 5.83334 13.3333H1.90735e-06V8.33331H5.83334C7.21405 8.33331 8.33334 7.21402 8.33334 5.83331H13.3333ZM1.90735e-06 -2.09808e-05H10.8333H1.90735e-06ZM13.3333 -2.09808e-05V5.83331C13.3333 9.97545 9.97547 13.3333 5.83334 13.3333V8.33331C7.21405 8.33331 8.33334 7.21402 8.33334 5.83331V-2.09808e-05H13.3333ZM1.90735e-06 10.8333V-2.09808e-05V10.8333Z" fill="white" fill-opacity="0.8" mask="url(#path-1-inside-1_1039_16)"/>
<mask id="path-3-inside-2_1039_16" fill="white">
<path d="M10.8333 19.1667C10.8333 16.4053 8.59476 14.1667 5.83334 14.1667H1.90735e-06V25H10.8333V19.1667Z"/>
</mask>
<path d="M13.3333 19.1667C13.3333 15.0246 9.97547 11.6667 5.83334 11.6667H1.90735e-06V16.6667H5.83334C7.21405 16.6667 8.33334 17.786 8.33334 19.1667H13.3333ZM1.90735e-06 25H10.8333H1.90735e-06ZM13.3333 25V19.1667C13.3333 15.0246 9.97547 11.6667 5.83334 11.6667V16.6667C7.21405 16.6667 8.33334 17.786 8.33334 19.1667V25H13.3333ZM1.90735e-06 14.1667V25V14.1667Z" fill="white" fill-opacity="0.8" mask="url(#path-3-inside-2_1039_16)"/>
<mask id="path-5-inside-3_1039_16" fill="white">
<path d="M14.1667 19.1667C14.1667 16.4053 16.4052 14.1667 19.1667 14.1667H25V25H14.1667V19.1667Z"/>
</mask>
<path d="M11.6667 19.1667C11.6667 15.0246 15.0245 11.6667 19.1667 11.6667H25V16.6667H19.1667C17.786 16.6667 16.6667 17.786 16.6667 19.1667H11.6667ZM25 25H14.1667H25ZM11.6667 25V19.1667C11.6667 15.0246 15.0245 11.6667 19.1667 11.6667V16.6667C17.786 16.6667 16.6667 17.786 16.6667 19.1667V25H11.6667ZM25 14.1667V25V14.1667Z" fill="white" fill-opacity="0.8" mask="url(#path-5-inside-3_1039_16)"/>
<mask id="path-7-inside-4_1039_16" fill="white">
<path d="M14.1667 5.83331C14.1667 8.59474 16.4052 10.8333 19.1667 10.8333H25V-2.09808e-05H14.1667V5.83331Z"/>
</mask>
<path d="M11.6667 5.83331C11.6667 9.97545 15.0245 13.3333 19.1667 13.3333H25V8.33331H19.1667C17.786 8.33331 16.6667 7.21402 16.6667 5.83331H11.6667ZM25 -2.09808e-05H14.1667H25ZM11.6667 -2.09808e-05V5.83331C11.6667 9.97545 15.0245 13.3333 19.1667 13.3333V8.33331C17.786 8.33331 16.6667 7.21402 16.6667 5.83331V-2.09808e-05H11.6667ZM25 10.8333V-2.09808e-05V10.8333Z" fill="white" fill-opacity="0.8" mask="url(#path-7-inside-4_1039_16)"/>
</svg>
