<svg width="69" height="68" viewBox="0 0 69 68" fill="none" xmlns="http://www.w3.org/2000/svg">
<rect x="8.03282" y="9.28235" width="52.6595" height="52.6595" rx="10.5319" fill="white"/>
<rect x="36.7617" width="32.2383" height="31.2387" rx="6.31914" fill="white"/>
<rect y="46.412" width="21.0638" height="21.0638" rx="4.21276" fill="white"/>
<rect x="1.87433" y="6.24731" width="13.745" height="13.745" rx="4.21276" fill="white"/>
<rect x="55.6049" y="54.98" width="7.49728" height="7.49728" rx="1.24955" fill="white"/>
<path fill-rule="evenodd" clip-rule="evenodd" d="M22.2514 27.26H28.4858V43.2113H19.0983V27.26H22.2155H22.2514ZM15.9811 30.4795V46.4308H28.4858V43.2479L31.6031 40.0649V30.4795L28.4858 27.2966V24.1136H15.9811V30.4795Z" fill="black"/>
<path fill-rule="evenodd" clip-rule="evenodd" d="M34.8532 27.8162V46.4308H38.5281V39.002H49.5953V35.2877H53.2702V27.8589L49.5953 24.1446V20.4302H38.5281V35.3303H49.5953V24.1446H38.5281L34.8532 27.8589V27.8162Z" fill="black"/>
</svg>
