<svg width="25" height="25" viewBox="0 0 25 25" fill="none" xmlns="http://www.w3.org/2000/svg">
<mask id="path-1-inside-1_1039_11" fill="white">
<path d="M0 5C0 2.23857 2.23858 0 5 0H10.8333V10.8333H0V5Z"/>
</mask>
<path d="M-2.5 5C-2.5 0.857864 0.857864 -2.5 5 -2.5H10.8333V2.5H5C3.61929 2.5 2.5 3.61929 2.5 5H-2.5ZM10.8333 10.8333H0H10.8333ZM-2.5 10.8333V5C-2.5 0.857864 0.857864 -2.5 5 -2.5V2.5C3.61929 2.5 2.5 3.61929 2.5 5V10.8333H-2.5ZM10.8333 0V10.8333V0Z" fill="white" fill-opacity="0.8" mask="url(#path-1-inside-1_1039_11)"/>
<mask id="path-3-inside-2_1039_11" fill="white">
<path d="M0 20C0 22.7614 2.23858 25 5 25H10.8333V14.1667H0V20Z"/>
</mask>
<path d="M-2.5 20C-2.5 24.1421 0.857864 27.5 5 27.5H10.8333V22.5H5C3.61929 22.5 2.5 21.3807 2.5 20H-2.5ZM10.8333 14.1667H0H10.8333ZM-2.5 14.1667V20C-2.5 24.1421 0.857864 27.5 5 27.5V22.5C3.61929 22.5 2.5 21.3807 2.5 20V14.1667H-2.5ZM10.8333 25V14.1667V25Z" fill="white" fill-opacity="0.8" mask="url(#path-3-inside-2_1039_11)"/>
<mask id="path-5-inside-3_1039_11" fill="white">
<path d="M25 20C25 22.7614 22.7614 25 20 25H14.1667V14.1667H25V20Z"/>
</mask>
<path d="M27.5 20C27.5 24.1421 24.1421 27.5 20 27.5H14.1667V22.5H20C21.3807 22.5 22.5 21.3807 22.5 20H27.5ZM14.1667 14.1667H25H14.1667ZM27.5 14.1667V20C27.5 24.1421 24.1421 27.5 20 27.5V22.5C21.3807 22.5 22.5 21.3807 22.5 20V14.1667H27.5ZM14.1667 25V14.1667V25Z" fill="white" fill-opacity="0.8" mask="url(#path-5-inside-3_1039_11)"/>
<mask id="path-7-inside-4_1039_11" fill="white">
<path d="M25 5C25 2.23857 22.7614 0 20 0H14.1667V10.8333H25V5Z"/>
</mask>
<path d="M27.5 5C27.5 0.857864 24.1421 -2.5 20 -2.5H14.1667V2.5H20C21.3807 2.5 22.5 3.61929 22.5 5H27.5ZM14.1667 10.8333H25H14.1667ZM27.5 10.8333V5C27.5 0.857864 24.1421 -2.5 20 -2.5V2.5C21.3807 2.5 22.5 3.61929 22.5 5V10.8333H27.5ZM14.1667 0V10.8333V0Z" fill="white" fill-opacity="0.8" mask="url(#path-7-inside-4_1039_11)"/>
</svg>
